<?xml version="1.0" standalone="no"?>
<!DOCTYPE svg PUBLIC "-//W3C//DTD SVG 20010904//EN"
 "http://www.w3.org/TR/2001/REC-SVG-20010904/DTD/svg10.dtd">
<svg version="1.0" xmlns="http://www.w3.org/2000/svg"
 width="1280.000000pt" height="770.000000pt" viewBox="0 0 1280.000000 770.000000"
 preserveAspectRatio="xMidYMid meet">
<metadata>
Created by potrace 1.15, written by Peter Selinger 2001-2017
</metadata>
<g transform="translate(0.000000,770.000000) scale(0.100000,-0.100000)"
fill="#000000" stroke="none">
<path d="M8435 7690 c-1354 -54 -3440 -351 -5535 -789 -1250 -261 -2430 -601
-2711 -781 -65 -43 -91 -75 -127 -162 -83 -199 -81 -404 7 -576 12 -23 22 -42
24 -42 1 -1 126 -22 277 -48 l275 -48 3 -2167 2 -2167 274 0 274 0 90 56 89
55 6 481 c3 264 8 482 10 484 2 3 64 11 138 20 213 25 817 30 1054 10 683 -59
1317 -223 1898 -492 76 -36 149 -72 163 -80 l24 -16 0 -714 0 -714 269 0 268
0 94 53 94 53 7 950 c4 522 10 1550 14 2286 l6 1336 67 17 c36 9 536 145 1111
302 575 157 1143 312 1262 344 120 33 225 62 233 65 13 5 15 -111 15 -1025 l0
-1031 152 0 151 0 53 40 54 40 2 302 3 302 30 8 c17 4 104 18 195 30 145 20
209 22 525 23 378 0 470 -7 745 -56 477 -85 988 -271 1374 -499 l86 -51 2
-337 3 -337 197 -3 198 -2 75 52 75 52 1 436 c1 940 17 3131 23 3137 5 5 269
80 505 143 79 22 85 25 112 68 44 70 63 138 62 222 0 73 0 75 31 95 17 11 32
30 34 41 14 100 -386 259 -968 383 -562 121 -1176 197 -1945 241 -236 14
-1195 21 -1450 10z m3045 -1695 l0 -335 -22 -5 c-57 -13 -207 -35 -343 -51
-210 -25 -681 -25 -885 0 -232 28 -485 78 -682 135 -62 18 -114 40 -95 41 8 0
121 31 952 259 460 126 676 185 895 246 85 24 161 44 168 44 9 1 12 -72 12
-334z m-9689 -945 c893 -152 1855 -315 2474 -419 l400 -66 0 -490 0 -489 -112
-17 c-1004 -152 -2098 -2 -3026 416 l-127 57 0 534 c0 515 1 534 19 534 10 0
178 -27 372 -60z"/>
</g>
</svg>
